<svg width="23" height="23" viewBox="0 0 23 23" fill="none" xmlns="http://www.w3.org/2000/svg">
<g id="icons8-facebook 1">
<path id="Vector" d="M20.125 17.7292C20.125 19.0526 19.0526 20.125 17.7292 20.125H5.27083C3.94785 20.125 2.875 19.0526 2.875 17.7292V5.27083C2.875 3.94737 3.94785 2.875 5.27083 2.875H17.7292C19.0526 2.875 20.125 3.94737 20.125 5.27083V17.7292Z" fill="#3F51B5"/>
<path id="Vector_2" d="M16.468 11.9791H14.8541V18.2083H12.4583V11.9791H11.0208V10.0625H12.4583V8.90767C12.4593 7.22675 13.1574 6.22913 15.1378 6.22913H16.7708V8.14579H15.675C14.904 8.14579 14.8541 8.43329 14.8541 8.9714V10.0625H16.7708L16.468 11.9791Z" fill="white"/>
</g>
</svg>
