<svg width="22" height="21" viewBox="0 0 22 21" fill="none" xmlns="http://www.w3.org/2000/svg">
<g id="icons8-whatsapp 1">
<path id="Vector" fill-rule="evenodd" clip-rule="evenodd" d="M2.23114 18.9451L3.46589 14.6422C2.70414 13.3831 2.30356 11.9543 2.30402 10.4908C2.30631 5.91237 6.20947 2.1875 11.0064 2.1875C13.3343 2.18838 15.5187 3.05331 17.1618 4.62262C18.8045 6.19238 19.7092 8.27837 19.7083 10.4974C19.7065 15.0758 15.8024 18.8011 11.0064 18.8011H11.0027C9.5466 18.8007 8.11522 18.452 6.84426 17.7901L2.23114 18.9451Z" fill="white"/>
<path id="Vector_2" fill-rule="evenodd" clip-rule="evenodd" d="M2.23116 19.1638C2.17066 19.1638 2.112 19.1411 2.06846 19.0991C2.01116 19.0435 1.98871 18.9626 2.01025 18.8878L3.21979 14.672C2.46996 13.4006 2.07441 11.9569 2.07533 10.4913C2.07716 5.79163 6.08346 1.96875 11.0064 1.96875C13.3943 1.96963 15.6379 2.85731 17.3241 4.46819C19.0103 6.0795 19.9384 8.22062 19.9375 10.4974C19.9357 15.1966 15.9289 19.0199 11.0064 19.0199C9.54479 19.0194 8.09875 18.6751 6.81541 18.0237L2.28937 19.1564C2.27012 19.1616 2.25087 19.1638 2.23116 19.1638Z" fill="white"/>
<path id="Vector_3" fill-rule="evenodd" clip-rule="evenodd" d="M11.0064 2.1875C13.3343 2.18837 15.5187 3.05331 17.1618 4.62262C18.8045 6.19237 19.7092 8.27837 19.7083 10.4974C19.7065 15.0758 15.8024 18.8011 11.0064 18.8011H11.0027C9.54662 18.8007 8.11525 18.452 6.84429 17.7901L2.23117 18.9451L3.46592 14.6422C2.70417 13.3831 2.30358 11.9542 2.30404 10.4908C2.30633 5.91237 6.2095 2.1875 11.0064 2.1875ZM11.0064 1.75C5.95742 1.75 1.848 5.67087 1.84571 10.4908C1.84525 11.9639 2.23483 13.4155 2.97367 14.7004L1.78887 18.83C1.74579 18.9809 1.78979 19.1419 1.90529 19.2531C1.99237 19.3371 2.11017 19.383 2.23117 19.383C2.27012 19.383 2.30908 19.3782 2.34758 19.3686L6.78746 18.2573C8.08362 18.8996 9.53654 19.2386 11.0027 19.2391C16.0554 19.2391 20.1648 15.3177 20.1671 10.4978C20.168 8.162 19.2161 5.96575 17.4868 4.31375C15.7566 2.66131 13.4553 1.75087 11.0064 1.75Z" fill="#CFD8DC"/>
<path id="Vector_4" fill-rule="evenodd" clip-rule="evenodd" d="M16.1223 5.61396C14.7565 4.30934 12.9411 3.59053 11.0087 3.59009C7.01938 3.59009 3.77484 6.68584 3.77301 10.4912C3.77255 11.7954 4.1548 13.065 4.87897 14.1645L5.0513 14.4256L4.32026 16.9723L7.05789 16.2872L7.32234 16.4368C8.43243 17.066 9.70568 17.3985 11.0037 17.3989H11.0064C14.993 17.3989 18.2376 14.3027 18.2389 10.4969C18.2394 8.65284 17.4882 6.91859 16.1223 5.61396Z" fill="#40C351"/>
<path id="Vector_5" fill-rule="evenodd" clip-rule="evenodd" d="M8.83119 7.0197C8.66848 6.67407 8.49707 6.66707 8.34169 6.66095C8.21473 6.6557 8.0699 6.65614 7.92507 6.65614C7.78023 6.65614 7.54465 6.7082 7.34528 6.91601C7.1459 7.12382 6.58398 7.62564 6.58398 8.64676C6.58398 9.66789 7.36315 10.6549 7.47178 10.7931C7.5804 10.9314 8.97603 13.0939 11.1861 13.9261C13.0227 14.6173 13.3967 14.4799 13.7954 14.4454C14.1942 14.4108 15.0819 13.9436 15.263 13.4588C15.444 12.9741 15.444 12.5589 15.3899 12.4723C15.3354 12.3856 15.1906 12.334 14.9733 12.2299C14.7561 12.1258 13.6868 11.6239 13.4874 11.5548C13.288 11.4857 13.1432 11.4511 12.9979 11.6589C12.8531 11.8663 12.4364 12.334 12.3095 12.4723C12.1825 12.6109 12.0556 12.6284 11.8383 12.5243C11.6211 12.4202 10.9207 12.2014 10.0898 11.4944C9.44353 10.9445 9.00719 10.2651 8.88023 10.0573C8.75328 9.84989 8.86648 9.73745 8.97557 9.63376C9.07319 9.54057 9.19282 9.39139 9.3019 9.2702C9.41053 9.14901 9.44673 9.06239 9.51915 8.92414C9.59157 8.78545 9.55536 8.66426 9.50082 8.56057C9.44719 8.45645 9.02461 7.43007 8.83119 7.0197Z" fill="white"/>
</g>
</svg>
